<?xml version="1.0" encoding="utf-8"?>
<!-- Generator: Adobe Illustrator 16.0.0, SVG Export Plug-In . SVG Version: 6.00 Build 0)  -->
<!DOCTYPE svg PUBLIC "-//W3C//DTD SVG 1.1//EN" "http://www.w3.org/Graphics/SVG/1.1/DTD/svg11.dtd">
<svg version="1.1" xmlns="http://www.w3.org/2000/svg" xmlns:xlink="http://www.w3.org/1999/xlink" x="0px" y="0px" width="30px"
	 height="30px" viewBox="0 0 30 30" enable-background="new 0 0 30 30" xml:space="preserve">
<g id="Grid">
</g>
<g id="Twitter">
	<g>
		<rect fill="#3E3E40" width="30" height="30"/>
	</g>
</g>
<g id="facebook">
</g>
<g id="Dribbble">
</g>
<g id="Pinterest">
</g>
<g id="deviantART">
</g>
<g id="Zerply">
</g>
<g id="RSS">
</g>
<g id="Google_x2B_">
</g>
<g id="Flickr">
</g>
<g id="Vimeo">
</g>
<g id="Behance">
	<g>
		<path fill="#F9F9F9" d="M12.895,14.406c0,0,2.085-0.155,2.085-2.601s-1.706-3.639-3.867-3.639H7.134H7.018H4v13.667h3.018h0.116
			h3.979c0,0,4.341,0.137,4.341-4.034C15.453,17.799,15.643,14.406,12.895,14.406z M7.134,10.596h3.467h0.512
			c0,0,0.967,0,0.967,1.421c0,1.422-0.569,1.628-1.214,1.628H7.134V10.596z M10.912,19.404c-0.106,0.002-0.195,0-0.256,0H7.134
			v-3.652h3.979c0,0,1.44-0.02,1.44,1.876C12.553,19.228,11.478,19.392,10.912,19.404z"/>
		<path fill="#F9F9F9" d="M23.277,12.568c0.693,0.286,1.267,0.737,1.717,1.352c0.408,0.545,0.674,1.174,0.794,1.89
			c0.07,0.42,0.224,1.205,0.212,1.994l-7.495-0.018c0.042,0.918,0.514,1.398,1.166,1.767c0.396,0.229,0.877,0.343,1.434,0.343
			c0.594,0,1.074-0.139,1.443-0.418c0.203-0.152,0.436-0.253,0.59-0.521h2.835c-0.07,0.541-0.627,0.983-1.198,1.542
			c-0.891,0.888-2.137,1.333-3.741,1.333c-1.322,0-2.49-0.374-3.501-1.125c-1.012-0.748-1.517-1.968-1.517-3.658
			c0-1.583,0.454-2.797,1.367-3.642c0.913-0.844,2.099-1.267,3.557-1.267C21.805,12.141,22.585,12.283,23.277,12.568z
			 M19.388,14.634c-0.366,0.347-0.597,0.82-0.693,1.414h4.48c-0.048-0.634-0.279-1.116-0.692-1.445
			c-0.414-0.328-0.929-0.492-1.543-0.492C20.272,14.111,19.757,14.285,19.388,14.634z"/>
		<path fill="#F9F9F9" d="M23.714,10.63l-5.779,0.014l-0.037-1.367l5.816,0.014V10.63z"/>
	</g>
</g>
<g id="Youtube">
</g>
<g id="Tumblr">
</g>
<g id="Forrst">
</g>
<g id="Wordpress">
</g>
<g id="Layer_17">
</g>
</svg>
