<?xml version="1.0" encoding="utf-8"?>
<!-- Generator: Adobe Illustrator 16.0.0, SVG Export Plug-In . SVG Version: 6.00 Build 0)  -->
<!DOCTYPE svg PUBLIC "-//W3C//DTD SVG 1.1//EN" "http://www.w3.org/Graphics/SVG/1.1/DTD/svg11.dtd">
<svg version="1.1" id="Layer_1" xmlns="http://www.w3.org/2000/svg" xmlns:xlink="http://www.w3.org/1999/xlink" x="0px" y="0px"
	 width="30px" height="30px" viewBox="0 0 30 30" enable-background="new 0 0 30 30" xml:space="preserve">
<g>
	<g>
		<path fill="#F9F9F9" d="M27.768,29.182c-1.167,1.167-3.333,0.909-4.815-0.573L1.392,7.048c-1.482-1.482-1.741-3.649-0.574-4.816
			l1.414-1.414c1.167-1.167,3.334-0.909,4.816,0.574l21.56,21.561c1.482,1.482,1.74,3.648,0.573,4.815L27.768,29.182z"/>
	</g>
	<g>
		<path fill="#F9F9F9" d="M29.182,2.232c1.167,1.167,0.909,3.333-0.573,4.815l-21.56,21.56c-1.482,1.482-3.649,1.741-4.816,0.574
			l-1.414-1.414c-1.167-1.167-0.909-3.334,0.574-4.816l21.561-21.56c1.482-1.482,3.648-1.74,4.815-0.573L29.182,2.232z"/>
	</g>
</g>
</svg>
