<?xml version="1.0" encoding="utf-8"?>
<!-- Generator: Adobe Illustrator 16.0.0, SVG Export Plug-In . SVG Version: 6.00 Build 0)  -->
<!DOCTYPE svg PUBLIC "-//W3C//DTD SVG 1.1//EN" "http://www.w3.org/Graphics/SVG/1.1/DTD/svg11.dtd">
<svg version="1.1" id="Layer_1" xmlns="http://www.w3.org/2000/svg" xmlns:xlink="http://www.w3.org/1999/xlink" x="0px" y="0px"
	 width="30px" height="30px" viewBox="0 0 30 30" enable-background="new 0 0 30 30" xml:space="preserve">
<rect fill="#3E3E40" width="30" height="30"/>
<path fill="#FFFFFF" d="M10.24,22.811H6.925V12.199h3.315V22.811z M8.498,10.871H8.474c-1.2,0-1.978-0.811-1.978-1.838
	c0-1.049,0.801-1.843,2.025-1.843c1.223,0,1.975,0.792,1.998,1.84C10.52,10.057,9.744,10.871,8.498,10.871z M23.504,22.811h-3.76
	v-5.492c0-1.437-0.587-2.417-1.881-2.417c-0.988,0-1.538,0.661-1.795,1.3c-0.096,0.229-0.08,0.547-0.08,0.867v5.742h-3.725
	c0,0,0.049-9.728,0-10.612h3.725v1.665c0.22-0.729,1.409-1.768,3.309-1.768c2.355,0,4.207,1.526,4.207,4.814V22.811z"/>
</svg>
