<?xml version="1.0" encoding="utf-8"?>
<!-- Generator: Adobe Illustrator 16.0.0, SVG Export Plug-In . SVG Version: 6.00 Build 0)  -->
<!DOCTYPE svg PUBLIC "-//W3C//DTD SVG 1.1//EN" "http://www.w3.org/Graphics/SVG/1.1/DTD/svg11.dtd">
<svg version="1.1" id="Layer_1" xmlns="http://www.w3.org/2000/svg" xmlns:xlink="http://www.w3.org/1999/xlink" x="0px" y="0px"
	 width="30px" height="30px" viewBox="0 0 30 30" enable-background="new 0 0 30 30" xml:space="preserve">
<g>
	<path fill="#3E3E40" d="M30,5c0,1.65-1.35,3-3,3H3C1.35,8,0,6.65,0,5V3c0-1.65,1.35-3,3-3h24c1.65,0,3,1.35,3,3V5z"/>
</g>
<g>
	<path fill="#3E3E40" d="M30,16c0,1.65-1.35,3-3,3H3c-1.65,0-3-1.35-3-3v-2c0-1.65,1.35-3,3-3h24c1.65,0,3,1.35,3,3V16z"/>
</g>
<g>
	<path fill="#3E3E40" d="M30,27c0,1.65-1.35,3-3,3H3c-1.65,0-3-1.35-3-3v-2c0-1.65,1.35-3,3-3h24c1.65,0,3,1.35,3,3V27z"/>
</g>
</svg>
