<?xml version="1.0" encoding="utf-8"?>
<!-- Generator: Adobe Illustrator 16.0.0, SVG Export Plug-In . SVG Version: 6.00 Build 0)  -->
<!DOCTYPE svg PUBLIC "-//W3C//DTD SVG 1.1//EN" "http://www.w3.org/Graphics/SVG/1.1/DTD/svg11.dtd">
<svg version="1.1" id="Layer_1" xmlns="http://www.w3.org/2000/svg" xmlns:xlink="http://www.w3.org/1999/xlink" x="0px" y="0px"
	 width="30px" height="30px" viewBox="0 0 30 30" enable-background="new 0 0 30 30" xml:space="preserve">
<rect fill="#3E3E40" width="30" height="30"/>
<path fill="#FFFFFF" d="M15,6.495c-4.696,0-8.504,3.808-8.504,8.505c0,3.483,2.094,6.475,5.091,7.79
	c-0.024-0.592-0.004-1.307,0.147-1.953c0.164-0.689,1.094-4.633,1.094-4.633s-0.271-0.544-0.271-1.346
	c0-1.261,0.731-2.202,1.64-2.202c0.773,0,1.147,0.581,1.147,1.277c0,0.777-0.496,1.94-0.751,3.017
	c-0.213,0.902,0.452,1.639,1.342,1.639c1.611,0,2.696-2.068,2.696-4.522c0-1.863-1.256-3.259-3.538-3.259
	c-2.58,0-4.187,1.924-4.187,4.072c0,0.741,0.218,1.265,0.56,1.669c0.158,0.186,0.179,0.26,0.123,0.475
	c-0.041,0.154-0.134,0.533-0.173,0.682c-0.057,0.215-0.231,0.293-0.425,0.213c-1.188-0.486-1.742-1.787-1.742-3.25
	c0-2.416,2.037-5.313,6.077-5.313c3.247,0,5.383,2.351,5.383,4.872c0,3.337-1.854,5.83-4.588,5.83c-0.918,0-1.782-0.496-2.077-1.061
	c0,0-0.494,1.959-0.599,2.338c-0.18,0.656-0.533,1.311-0.856,1.822c0.765,0.227,1.573,0.35,2.41,0.35
	c4.696,0,8.503-3.809,8.503-8.506C23.504,10.302,19.696,6.495,15,6.495"/>
</svg>
