<?xml version="1.0" encoding="utf-8"?>
<!-- Generator: Adobe Illustrator 16.0.0, SVG Export Plug-In . SVG Version: 6.00 Build 0)  -->
<!DOCTYPE svg PUBLIC "-//W3C//DTD SVG 1.1//EN" "http://www.w3.org/Graphics/SVG/1.1/DTD/svg11.dtd">
<svg version="1.1" id="Layer_1" xmlns="http://www.w3.org/2000/svg" xmlns:xlink="http://www.w3.org/1999/xlink" x="0px" y="0px"
	 width="30px" height="30px" viewBox="0 0 30 30" enable-background="new 0 0 30 30" xml:space="preserve">
<rect fill="#3E3E40" width="30" height="30"/>
<path fill="#FFFFFF" d="M15.64,6.495v4.3h4.035v2.67H15.64v4.362c0,0.986,0.052,1.619,0.156,1.898
	c0.104,0.281,0.298,0.504,0.584,0.672c0.375,0.227,0.805,0.338,1.29,0.338c0.861,0,1.717-0.281,2.569-0.84v2.684
	c-0.728,0.342-1.385,0.582-1.974,0.719c-0.59,0.141-1.227,0.209-1.911,0.209c-0.778,0-1.466-0.1-2.062-0.295
	c-0.597-0.197-1.107-0.477-1.528-0.84c-0.422-0.363-0.716-0.752-0.878-1.16c-0.163-0.41-0.244-1.004-0.244-1.781v-5.965H9.761
	v-2.407c0.67-0.218,1.241-0.529,1.718-0.934c0.476-0.405,0.859-0.892,1.146-1.461c0.288-0.567,0.487-1.291,0.596-2.168H15.64z"/>
</svg>
