<?xml version="1.0" encoding="utf-8"?>
<!-- Generator: Adobe Illustrator 16.0.0, SVG Export Plug-In . SVG Version: 6.00 Build 0)  -->
<!DOCTYPE svg PUBLIC "-//W3C//DTD SVG 1.1//EN" "http://www.w3.org/Graphics/SVG/1.1/DTD/svg11.dtd">
<svg version="1.1" xmlns="http://www.w3.org/2000/svg" xmlns:xlink="http://www.w3.org/1999/xlink" x="0px" y="0px" width="30px"
	 height="30px" viewBox="0 0 30 30" enable-background="new 0 0 30 30" xml:space="preserve">
<g id="Grid">
</g>
<g id="Twitter">
	<g>
		<rect fill="#3E3E40" width="30" height="30"/>
	</g>
</g>
<g id="facebook">
</g>
<g id="Dribbble">
</g>
<g id="Pinterest">
</g>
<g id="deviantART">
</g>
<g id="Zerply">
</g>
<g id="RSS">
</g>
<g id="Google_x2B_">
</g>
<g id="Flickr">
</g>
<g id="Vimeo">
</g>
<g id="Behance">
</g>
<g id="Youtube">
</g>
<g id="Tumblr">
</g>
<g id="Forrst">
</g>
<g id="Wordpress">
</g>
<g id="Layer_17">
	<path fill="#F9F9F9" d="M26.074,8.131c-0.814,0.362-1.69,0.606-2.609,0.715c0.938-0.562,1.658-1.453,1.998-2.514
		c-0.879,0.521-1.851,0.899-2.886,1.103C21.748,6.552,20.567,6,19.26,6c-2.509,0-4.543,2.034-4.543,4.544
		c0,0.356,0.039,0.702,0.117,1.035c-3.777-0.189-7.126-1.998-9.367-4.748C5.076,7.503,4.853,8.283,4.853,9.116
		c0,1.577,0.802,2.967,2.021,3.782c-0.745-0.023-1.446-0.228-2.06-0.568c0,0.019,0,0.038,0,0.058c0,2.201,1.566,4.038,3.646,4.456
		c-0.382,0.104-0.783,0.16-1.198,0.16c-0.293,0-0.577-0.028-0.854-0.082c0.578,1.805,2.257,3.119,4.245,3.156
		c-1.556,1.219-3.515,1.946-5.645,1.946c-0.366,0-0.728-0.022-1.084-0.064C5.937,23.249,8.325,24,10.892,24
		c8.358,0,12.928-6.924,12.928-12.929c0-0.197-0.004-0.394-0.013-0.588C24.694,9.843,25.466,9.042,26.074,8.131z"/>
</g>
</svg>
